<!DOCTYPE svg PUBLIC "-//W3C//DTD SVG 1.1//EN" "http://www.w3.org/Graphics/SVG/1.1/DTD/svg11.dtd">
<!-- Uploaded to: SVG Repo, www.svgrepo.com, Transformed by: SVG Repo Mixer Tools -->
<svg fill="#ffffff" height="800px" width="800px" version="1.1" id="Layer_1" xmlns="http://www.w3.org/2000/svg" xmlns:xlink="http://www.w3.org/1999/xlink" viewBox="0 0 512 512" xml:space="preserve" stroke="#ffffff">
<g id="SVGRepo_bgCarrier" stroke-width="0"/>
<g id="SVGRepo_tracerCarrier" stroke-linecap="round" stroke-linejoin="round"/>
<g id="SVGRepo_iconCarrier"> <g> <g> <path d="M485.083,27.49H26.917C12.075,27.49,0,39.565,0,54.407v329.879c0,14.842,12.075,26.917,26.917,26.917h173.535 l-7.016,56.125h-29.069c-4.744,0-8.591,3.846-8.591,8.591c0,4.744,3.846,8.591,8.591,8.591h183.266 c4.744,0,8.591-3.846,8.591-8.591c0-4.744-3.846-8.591-8.591-8.591h-29.069l-7.016-56.125h173.535 c14.842,0,26.917-12.075,26.917-26.917V54.407C512,39.565,499.925,27.49,485.083,27.49z M210.75,467.329l7.016-56.125h76.467 l7.016,56.125H210.75z M494.819,384.286c0,5.369-4.367,9.736-9.736,9.736H26.917c-5.369,0-9.736-4.367-9.736-9.736V54.407 c0-5.369,4.367-9.736,9.736-9.736h458.166c5.369,0,9.736,4.367,9.736,9.736V384.286z"/> </g> </g> <g> <g> <path d="M402.613,64.143H45.244c-4.744,0-8.591,3.846-8.591,8.591v284.063c0,4.744,3.846,8.591,8.591,8.591h27.493 c4.744,0,8.591-3.846,8.591-8.591c0-4.744-3.845-8.591-8.591-8.591H53.834V81.324h348.779c4.744,0,8.591-3.846,8.591-8.591 C411.204,67.99,407.357,64.143,402.613,64.143z"/> </g> </g> <g> <g> <path d="M466.756,64.143h-27.49c-4.744,0-8.591,3.846-8.591,8.591c0,4.744,3.846,8.591,8.591,8.591h18.899v266.881h-348.78 c-4.744,0-8.591,3.846-8.591,8.591c0,4.744,3.846,8.591,8.591,8.591h357.37c4.744,0,8.591-3.846,8.591-8.591V72.734 C475.347,67.99,471.5,64.143,466.756,64.143z"/> </g> </g> <g> <g> <path d="M411.776,109.96c-14.842,0-26.917,12.075-26.917,26.917c0,4.567,1.147,8.869,3.161,12.641l-68.831,72.88 c-3.429-1.586-7.244-2.479-11.264-2.479c-7.165,0-13.679,2.819-18.506,7.399l-58.783-31.12c0.23-1.415,0.355-2.864,0.355-4.342 c0-14.842-12.075-26.917-26.917-26.917s-26.917,12.075-26.917,26.917c0,4.151,0.946,8.086,2.631,11.6l-67.251,65.274 c-3.693-1.908-7.877-2.994-12.313-2.994c-14.842,0-26.917,12.075-26.917,26.917s12.075,26.917,26.917,26.917 c14.842,0,26.917-12.075,26.917-26.917c0-4.151-0.946-8.086-2.631-11.6l67.251-65.274c3.693,1.908,7.878,2.994,12.313,2.994 c7.165,0,13.679-2.819,18.506-7.399l58.783,31.12c-0.23,1.415-0.355,2.864-0.355,4.342c0,14.842,12.075,26.917,26.917,26.917 s26.917-12.075,26.917-26.917c0-4.567-1.147-8.87-3.162-12.641l68.831-72.88c3.429,1.586,7.244,2.479,11.264,2.479 c14.842,0,26.917-12.075,26.917-26.917S426.619,109.96,411.776,109.96z M100.224,302.389c-5.369,0-9.736-4.367-9.736-9.736 c0-5.369,4.367-9.736,9.736-9.736c5.369,0,9.736,4.367,9.736,9.736C109.96,298.022,105.592,302.389,100.224,302.389z M204.075,201.593c-5.369,0-9.736-4.367-9.736-9.736c0-5.369,4.366-9.736,9.736-9.736c5.369,0,9.736,4.367,9.736,9.736 C213.811,197.225,209.444,201.593,204.075,201.593z M307.925,256.573c-5.369,0-9.736-4.367-9.736-9.736 c0-5.369,4.367-9.736,9.736-9.736c5.369,0,9.736,4.367,9.736,9.736C317.661,252.205,313.294,256.573,307.925,256.573z M411.776,146.613c-5.369,0-9.736-4.367-9.736-9.736s4.367-9.736,9.736-9.736c5.369,0,9.736,4.367,9.736,9.736 S417.145,146.613,411.776,146.613z"/> </g> </g> <g> <g> <path d="M411.776,183.266c-4.744,0-8.591,3.846-8.591,8.591v128.286c0,4.744,3.846,8.591,8.591,8.591 c4.744,0,8.591-3.846,8.591-8.591V191.857C420.367,187.113,416.521,183.266,411.776,183.266z"/> </g> </g> <g> <g> <path d="M204.075,238.246c-4.744,0-8.591,3.846-8.591,8.591v73.307c0,4.744,3.846,8.591,8.591,8.591 c4.744,0,8.591-3.846,8.591-8.591v-73.307C212.666,242.092,208.819,238.246,204.075,238.246z"/> </g> </g> <g> <g> <path d="M307.925,293.226c-4.744,0-8.591,3.846-8.591,8.591v18.327c0,4.744,3.846,8.591,8.591,8.591s8.591-3.846,8.591-8.591 v-18.327C316.516,297.072,312.669,293.226,307.925,293.226z"/> </g> </g> </g>
</svg>